<svg xmlns="http://www.w3.org/2000/svg" width="668" height="455" viewBox="0 0 668 455"><defs><mask id="5itvb" width="2" height="2" x="-1" y="-1"><path fill="#fff" d="M0 90h380v280H0z"/><path d="M4 89.999h372a4 4 0 0 1 4 4v272a4 4 0 0 1-4 4H4a4 4 0 0 1-4-4v-272a4 4 0 0 1 4-4z"/></mask><filter id="5itva" width="400" height="304" x="-10" y="80" filterUnits="userSpaceOnUse"><feOffset dy="4" in="SourceGraphic" result="FeOffset1261Out"/><feGaussianBlur in="FeOffset1261Out" result="FeGaussianBlur1262Out" stdDeviation="0 0"/></filter><clipPath id="5itvc"><path fill="#fff" d="M329 421V14h315v407zm4.993-386.906v366.809c0 8.336 6.76 15.094 15.1 15.094H623.9c8.34 0 15.1-6.758 15.1-15.094V34.093C639 25.758 632.24 19 623.9 19H349.092c-8.339 0-15.099 6.758-15.099 15.095z"/></clipPath><clipPath id="5itvd"><path fill="#fff" d="M241 412V135h135v277zm112.528-271.788h-89.625c-9.621 0-17.45 7.814-17.45 17.417v231.288c0 9.604 7.829 17.417 17.45 17.417h89.625c9.622 0 17.45-7.813 17.45-17.417V157.63c0-9.603-7.828-17.417-17.45-17.417z"/></clipPath><clipPath id="5itve"><path d="M353.528 140.212h-89.625c-9.621 0-17.45 7.814-17.45 17.417v231.288c0 9.604 7.829 17.417 17.45 17.417h89.625c9.622 0 17.45-7.813 17.45-17.417V157.63c0-9.603-7.828-17.417-17.45-17.417z"/></clipPath></defs><g><g><g><g><g filter="url(#5itva)"><path fill="none" d="M4 89.999h372a4 4 0 0 1 4 4v272a4 4 0 0 1-4 4H4a4 4 0 0 1-4-4v-272a4 4 0 0 1 4-4z" mask="url(&quot;#5itvb&quot;)"/><path fill-opacity=".26" d="M4 89.999h372a4 4 0 0 1 4 4v272a4 4 0 0 1-4 4H4a4 4 0 0 1-4-4v-272a4 4 0 0 1 4-4z"/></g><path fill="#fff" d="M4 89.999h372a4 4 0 0 1 4 4v272a4 4 0 0 1-4 4H4a4 4 0 0 1-4-4v-272a4 4 0 0 1 4-4z"/></g><g><path fill="#dcdccf" d="M380 161.553V366a4 4 0 0 1-4 4H4a4 4 0 0 1-4-4V161.553z"/></g><g><path fill="#cfcfcf" d="M0 160.999v-67a4 4 0 0 1 4-4h372a4 4 0 0 1 4 4v67z"/></g><g><g><path fill="#d5635d" d="M18 102.999a6 6 0 1 1 0 12 6 6 0 0 1 0-12z"/></g><g><path fill="#dda85a" d="M39 102.999a6 6 0 1 1 0 12 6 6 0 0 1 0-12z"/></g><g><path fill="#76b24f" d="M60 102.999a6 6 0 1 1 0 12 6 6 0 0 1 0-12z"/></g></g><g><path fill="#ebebeb" d="M0 124.999h71.406c1.795 0 3.07-1.053 3.53-2.206C77.258 116.967 83 102.999 83 102.999c.797-1.545 1.895-2 3-2h180c1.105 0 2.203.455 3 2 0 0 5.742 13.968 8.064 19.794.46 1.153 1.735 2.206 3.53 2.206H380v37H0z"/></g><g><g><path fill="#fff" d="M93 131.999h254a2 2 0 0 1 2 2v19a2 2 0 0 1-2 2H93a2 2 0 0 1-2-2v-19a2 2 0 0 1 2-2z"/></g><g><g><path fill="#cbcbcb" d="M100 135.999h5l4 4v9a2 2 0 0 1-2 2h-7a2 2 0 0 1-2-2v-11a2 2 0 0 1 2-2z"/></g><g opacity=".3"><path fill="#7a7a7a" d="M105.666 141H105a1 1 0 0 1-1-1v-4.001h.863l4.137 4.137V141z"/></g></g></g><g><g><path fill="#6d6d6d" d="M73.026 142.993v-.056l2.62-2.62A4.428 4.428 0 0 0 72.5 139a4.5 4.5 0 1 0 3.74 7h1.37l1.31 1.361A7.488 7.488 0 0 1 72.5 151a7.5 7.5 0 0 1 0-15c2.063 0 3.916.846 5.27 2.194l2.168-2.168h.088v6.968z"/></g><g><path fill="#6d6d6d" d="M22.5 141.999a1.5 1.5 0 0 1 0 3h-8.503l2.507 2.508a1.5 1.5 0 1 1-2.121 2.12l-4.95-4.949c-.09-.09-.167-.19-.23-.294a1.502 1.502 0 0 1-.038-1.57c.111-.217.274-.403.473-.543l4.714-4.714a1.5 1.5 0 1 1 2.121 2.121l-2.32 2.32z"/></g><g><path fill="#6d6d6d" d="M38.469 144.999a1.5 1.5 0 0 1 0-3h8.347l-2.32-2.32a1.5 1.5 0 0 1 2.121-2.122l4.713 4.714c.2.14.363.327.475.545.28.485.268 1.093-.04 1.566-.062.106-.139.205-.23.296l-4.95 4.95a1.5 1.5 0 1 1-2.12-2.121l2.507-2.508z"/></g></g><g><path fill="#6d6d6d" d="M359.5 136.999h10a1.5 1.5 0 0 1 0 3h-10a1.5 1.5 0 0 1 0-3zm0 5h10a1.5 1.5 0 0 1 0 3h-10a1.5 1.5 0 0 1 0-3zm0 5h10a1.5 1.5 0 0 1 0 3h-10a1.5 1.5 0 0 1 0-3z"/></g><g><path fill="#6d6d6d" d="M364.98 113.999H358v-6.98l2.43 2.43 2.009-2.009a1.5 1.5 0 1 1 2.121 2.122l-2.009 2.009zm.072-14H372v6.98l-2.42-2.43-2 2.008a1.489 1.489 0 0 1-2.111 0 1.504 1.504 0 0 1 0-2.121l2-2.01z"/></g></g><g><g><path fill="#30393a" d="M349.092 18.999h274.81c8.338 0 15.099 6.758 15.099 15.095v366.809c0 8.336-6.76 15.094-15.1 15.094H349.092c-8.339 0-15.099-6.758-15.099-15.094V34.093c0-8.336 6.76-15.094 15.1-15.094z"/><path fill="none" stroke="#455051" stroke-linecap="round" stroke-linejoin="round" stroke-miterlimit="20" stroke-width="10" d="M349.092 18.999h274.81c8.338 0 15.099 6.758 15.099 15.095v366.809c0 8.336-6.76 15.094-15.1 15.094H349.092c-8.339 0-15.099-6.758-15.099-15.094V34.093c0-8.336 6.76-15.094 15.1-15.094z" clip-path="url(&quot;#5itvc&quot;)"/></g><g><path fill="#475455" d="M365.702 56.736h241.59V379.77h-241.59z"/></g><g><path fill="#273334" d="M486.497 35.604a3.02 3.02 0 1 1 .001 6.038 3.02 3.02 0 0 1-.001-6.038z"/></g><g><path fill="#162021" d="M486.499 37.139a1.483 1.483 0 1 1 0 2.966 1.483 1.483 0 0 1 0-2.966z"/></g><g><path fill="#364142" d="M486.497 385.808c5.837 0 10.57 4.73 10.57 10.566s-4.733 10.566-10.57 10.566c-5.837 0-10.57-4.73-10.57-10.566 0-5.835 4.733-10.566 10.57-10.566z"/></g><g><path fill="#30393a" d="M490.127 393.725v5.374a.95.95 0 0 1-.95.948h-5.384a.95.95 0 0 1-.95-.948v-5.374a.95.95 0 0 1 .95-.948h5.384a.95.95 0 0 1 .95.948zm-6.334-1.58c-.875 0-1.584.707-1.584 1.58v5.374c0 .872.71 1.58 1.584 1.58h5.384c.875 0 1.584-.708 1.584-1.58v-5.374c0-.873-.71-1.58-1.584-1.58z"/></g><g><path fill="#fff" d="M366.343 18.999H619.6c10.677 0 19.332 8.657 19.332 19.335v371.243C638.913 409.417 366.168 19 366.343 19z"/></g></g><g><g><g><path fill="#4f5b5c" d="M245.63 216.543v9.476h-1.083l-.542-.507v-8.461l.542-.508zm-1.083 9.476c0 .735 0-.356 0 0z"/></g><g><path fill="#4f5b5c" d="M245.63 201.254v9.477h-1.083l-.542-.508v-8.46l.542-.509zm-1.083 9.477c0 .735 0-.357 0 0z"/></g><g><path fill="#4f5b5c" d="M245.63 175.702v12.353h-1.083l-.542-.508V176.21l.542-.507zm-1.083 12.353c0 .735 0-.356 0 0z"/></g><g><path fill="#4f5b5c" d="M349.846 138.797h-20.624v-1.443l.887-.721h19.076l.661.721z"/></g></g><g><path fill="#30393a" d="M353.528 140.212h-89.625c-9.621 0-17.45 7.814-17.45 17.417v231.288c0 9.604 7.829 17.417 17.45 17.417h89.625c9.622 0 17.45-7.813 17.45-17.417V157.63c0-9.603-7.828-17.417-17.45-17.417z"/><path fill="none" stroke="#455051" stroke-linecap="round" stroke-linejoin="round" stroke-miterlimit="20" stroke-width="10" d="M353.528 140.212h-89.625c-9.621 0-17.45 7.814-17.45 17.417v231.288c0 9.604 7.829 17.417 17.45 17.417h89.625c9.622 0 17.45-7.813 17.45-17.417V157.63c0-9.603-7.828-17.417-17.45-17.417z" clip-path="url(&quot;#5itvd&quot;)"/></g><g clip-path="url(#5itve)"><path fill="#475455" d="M254.1 177.168h106.45c.2 0 .361.161.361.36V368.81c0 .2-.162.361-.36.361H254.1a.36.36 0 0 1-.361-.36V177.527a.36.36 0 0 1 .36-.36z"/></g><g clip-path="url(#5itve)"><path fill="#fff" d="M255.34 122.125l184.422-78.13 123.233 290.872-184.423 78.13z"/></g><g><g><path fill="#273334" d="M320.22 162.024c0 1.4-1.136 2.536-2.537 2.536h-18.611a2.537 2.537 0 0 1 0-5.072h18.61a2.537 2.537 0 0 1 2.539 2.536z"/></g></g><g><g><path fill="#273334" d="M308.547 149.45a2.368 2.368 0 1 1 .001 4.736 2.368 2.368 0 0 1-.001-4.736z"/></g><g><path fill="#162021" d="M308.545 150.733a1.082 1.082 0 1 1 0 2.165 1.082 1.082 0 0 1 0-2.165z"/></g></g><g><g><path fill="#364142" d="M320.541 387.938c0 5.993-4.861 10.852-10.859 10.852-5.997 0-10.859-4.859-10.859-10.852s4.862-10.852 10.86-10.852c5.997 0 10.858 4.859 10.858 10.852z"/></g><g><path fill="#273334" d="M313.25 385.148v5.27c0 .513-.417.93-.93.93h-5.275a.932.932 0 0 1-.93-.93v-5.27c0-.513.417-.93.93-.93h5.274c.514 0 .931.417.931.93zm-6.205-1.55a1.55 1.55 0 0 0-1.551 1.55v5.27c0 .857.694 1.55 1.551 1.55h5.274a1.55 1.55 0 0 0 1.552-1.55v-5.27a1.55 1.55 0 0 0-1.552-1.55z"/></g></g></g></g></g></svg>